<svg width="19" height="18" viewBox="0 0 19 18" fill="none" xmlns="http://www.w3.org/2000/svg">
<path d="M9.3608 1.93862C11.7424 1.93862 12.0245 1.94742 12.965 1.98924C13.8347 2.02774 14.3069 2.16895 14.6212 2.28765C15.0376 2.44484 15.3347 2.63267 15.6467 2.93587C15.9588 3.23906 16.1523 3.52787 16.3139 3.93231C16.4361 4.23777 16.5814 4.69669 16.621 5.54167C16.6639 6.45552 16.673 6.72967 16.673 9.044C16.673 11.3581 16.6639 11.6322 16.621 12.5461C16.5814 13.3912 16.4359 13.8501 16.3139 14.1554C16.1522 14.56 15.9588 14.8487 15.6467 15.152C15.3347 15.4552 15.0376 15.6432 14.6212 15.8004C14.3069 15.9191 13.8347 16.0601 12.965 16.0988C12.0247 16.1405 11.7425 16.1493 9.3608 16.1493C6.97907 16.1493 6.69692 16.1405 5.7566 16.0988C4.88687 16.0601 4.41473 15.9189 4.10038 15.8004C3.68402 15.643 3.38694 15.4552 3.07492 15.152C2.76275 14.8487 2.5693 14.56 2.40767 14.1554C2.28552 13.8501 2.1402 13.3912 2.10058 12.5461C2.05767 11.6322 2.04862 11.3581 2.04862 9.044C2.04862 6.72967 2.05753 6.45552 2.10058 5.54167C2.1402 4.69669 2.28566 4.23777 2.40767 3.93231C2.56944 3.52787 2.76275 3.23906 3.07492 2.93587C3.38694 2.63267 3.68402 2.44471 4.10038 2.28765C4.41473 2.16882 4.88687 2.02774 5.7566 1.98924C6.6972 1.94742 6.97921 1.93862 9.3608 1.93862ZM9.3608 0.376953C6.93835 0.376953 6.63469 0.386944 5.6834 0.429173C4.73389 0.471135 4.08556 0.617804 3.51826 0.831879C2.93177 1.05341 2.43427 1.34982 1.9384 1.83165C1.44267 2.31349 1.13763 2.79679 0.909646 3.36668C0.689199 3.91805 0.538406 4.54802 0.495085 5.47053C0.451763 6.39491 0.441465 6.69011 0.441465 9.044C0.441465 11.3978 0.451626 11.693 0.495085 12.6173C0.538406 13.5399 0.689199 14.1698 0.909646 14.7212C1.13763 15.291 1.44267 15.7744 1.9384 16.2562C2.43427 16.7381 2.93177 17.0345 3.51826 17.2559C4.08556 17.4701 4.73389 17.6166 5.6834 17.6587C6.63469 17.7008 6.93835 17.7109 9.3608 17.7109C11.7832 17.7109 12.0869 17.7009 13.0382 17.6587C13.9877 17.6166 14.6359 17.4701 15.2033 17.2559C15.7898 17.0345 16.2873 16.7381 16.7831 16.2562C17.2789 15.7744 17.584 15.2911 17.812 14.7212C18.0324 14.1698 18.1832 13.5399 18.2265 12.6173C18.2698 11.693 18.2801 11.3978 18.2801 9.044C18.2801 6.69011 18.27 6.39491 18.2265 5.47053C18.1832 4.54802 18.0324 3.91805 17.812 3.36668C17.584 2.79679 17.2789 2.31349 16.7831 1.83165C16.2873 1.34982 15.7898 1.05341 15.2033 0.831879C14.6359 0.617804 13.9877 0.471135 13.0382 0.429173C12.0869 0.386944 11.7832 0.376953 9.3608 0.376953Z" fill="#2E2E2E"/>
<path d="M9.36079 4.5918C6.83115 4.5918 4.78051 6.5844 4.78051 9.04245C4.78051 11.5004 6.83115 13.493 9.36079 13.493C11.8903 13.493 13.9411 11.5004 13.9411 9.04245C13.9411 6.5844 11.8903 4.5918 9.36079 4.5918ZM9.36079 11.9313C7.71869 11.9313 6.38752 10.6378 6.38752 9.04231C6.38752 7.44655 7.71869 6.15319 9.36079 6.15319C11.0029 6.15319 12.3339 7.44655 12.3339 9.04231C12.3339 10.6378 11.0029 11.9313 9.36079 11.9313Z" fill="#2E2E2E"/>
<path d="M14.7028 4.41724C14.7028 4.70227 14.461 4.95753 14.1324 4.95753C13.8038 4.95753 13.562 4.70227 13.562 4.41724C13.562 4.13221 13.8038 3.87695 14.1324 3.87695C14.461 3.87695 14.7028 4.13221 14.7028 4.41724Z" fill="white" stroke="#2E2E2E"/>
</svg>
