<svg width="27" height="16" viewBox="0 0 27 16" fill="none" xmlns="http://www.w3.org/2000/svg">
<path d="M16.4126 1.00432C17.1251 1.10507 17.8229 1.28406 18.5125 1.49594C19.7161 1.8666 20.8519 2.38153 21.9201 3.04955C21.9945 3.09565 22.0937 3.12492 22.1812 3.12492C23.4359 3.1301 24.6901 3.12829 25.9438 3.12933C26.0448 3.12933 26.1453 3.13995 26.246 3.14564C26.246 3.17025 26.2497 3.18061 26.2455 3.18631C26.187 3.27645 26.1277 3.36529 26.0689 3.45517C25.6433 4.10791 25.2796 4.79069 25.0649 5.54548C25.0416 5.62655 25.0367 5.69441 25.0916 5.77393C26.2085 7.37779 26.5649 9.13862 26.0981 11.0367C25.6889 12.7015 24.7347 13.9994 23.2847 14.9184C22.2483 15.5756 21.1034 15.8885 19.8803 15.8952C19.3664 15.8983 18.8551 15.8291 18.3532 15.6991C17.1301 15.3818 16.0815 14.7721 15.2174 13.8487C15.1035 13.7274 14.9962 13.6008 14.8748 13.4638C14.4178 14.1447 13.9682 14.8145 13.5076 15.502C13.0489 14.8166 12.6055 14.1533 12.1631 13.4925C12.1325 13.5086 12.1237 13.5104 12.1177 13.5161C12.1076 13.5244 12.0991 13.5345 12.0911 13.544C11.0459 14.7783 9.73111 15.5349 8.12933 15.7879C7.23829 15.9291 6.35581 15.8783 5.49042 15.6398C4.26395 15.3028 3.22165 14.6558 2.37958 13.701C1.55667 12.7675 1.04484 11.6838 0.852646 10.4516C0.632737 9.30154 0.900565 8.19267 0.967392 7.92355C1.16114 7.1413 1.4989 6.42304 1.96255 5.76254C1.99519 5.71565 2.00658 5.63276 1.99104 5.57682C1.80196 4.88342 1.47611 4.2527 1.09457 3.64866C0.997697 3.49506 0.881656 3.35286 0.774421 3.20548C0.774421 3.18864 0.774421 3.17129 0.774421 3.15419C0.79592 3.15678 0.81716 3.16093 0.83814 3.16093C2.12185 3.16144 3.4053 3.16196 4.68901 3.15937C4.74496 3.15937 4.80712 3.13632 4.85478 3.10575C5.75669 2.5271 6.71766 2.06863 7.72733 1.7117C8.45544 1.45475 9.19882 1.25427 9.95698 1.10741C10.691 0.965462 11.429 0.86548 12.1747 0.816266C13.9928 0.676395 15.4459 0.868847 16.4126 1.00432ZM14.8033 9.48234C14.8033 12.3013 17.0904 14.6042 19.8993 14.5933C22.7187 14.5832 24.9955 12.345 24.9934 9.49503C24.9913 6.55799 22.6089 4.35009 19.7899 4.40734C17.007 4.4651 14.8286 6.70822 14.8033 9.48234ZM7.15929 4.38791C4.41729 4.36408 2.02653 6.65253 2.07445 9.56756C2.119 12.286 4.35953 14.5905 7.21628 14.5659C10.0096 14.5421 12.2548 12.2611 12.2599 9.49892C12.2643 6.66108 9.99169 4.38791 7.15929 4.38791ZM7.4121 3.05809C8.96104 3.15264 10.3217 3.69244 11.4712 4.73785C12.6184 5.78118 13.2906 7.08277 13.5348 8.61332C13.7861 7.1009 14.4406 5.81149 15.5663 4.77851C16.6939 3.7445 18.0364 3.20185 19.5599 3.08711C17.752 2.28336 15.8456 1.94197 13.8832 1.90415C11.6531 1.86038 9.48375 2.18908 7.4121 3.05809Z" fill="#2E2E2E"/>
<path d="M19.8804 6.7661L19.8804 6.76601C18.4716 6.74136 17.2269 7.91076 17.2255 9.4193L19.8804 6.7661ZM19.8804 6.7661L19.89 6.76608M19.8804 6.7661L19.89 6.76608M19.89 6.76608C21.3593 6.76369 22.5466 7.94641 22.5466 9.41138C22.5466 10.8849 21.3774 12.0235 20.0002 12.0759L20 12.0759M19.89 6.76608L20 12.0759M20 12.0759C18.4572 12.1351 17.2252 10.9079 17.2255 9.41958L20 12.0759ZM19.8811 11.982C21.293 11.9873 22.4475 10.8293 22.4468 9.41892V9.41881C22.4459 8.00869 21.3058 6.85786 19.8975 6.85786C18.4833 6.85786 17.3264 7.99625 17.3206 9.40881L17.3206 9.40903C17.3155 10.8149 18.4741 11.978 19.8811 11.982ZM19.8811 11.982C19.8809 11.982 19.8808 11.982 19.8807 11.982L19.8827 11.482L19.8813 11.982C19.8812 11.982 19.8811 11.982 19.8811 11.982Z" fill="white" stroke="#2E2E2E"/>
<path d="M7.09194 6.26611C8.83541 6.26429 10.2504 7.67233 10.246 9.41477C10.2411 11.1784 8.85095 12.5013 7.24113 12.5746C5.4039 12.6585 3.92152 11.194 3.92489 9.4158C3.92851 7.61431 5.41322 6.23606 7.09194 6.26611ZM9.14727 9.41218C9.1439 8.26808 8.21868 7.35607 7.06371 7.35814C5.94966 7.36021 5.01614 8.30046 5.01873 9.41865C5.02158 10.5498 5.95406 11.4799 7.08883 11.4831C8.21661 11.4856 9.15012 10.5464 9.14727 9.41218Z" fill="#2E2E2E"/>
<path d="M19.8905 8.37305C20.4687 8.37253 20.9427 8.8468 20.9373 9.42157C20.9316 9.99763 20.4656 10.4644 19.897 10.4646C19.3116 10.4646 18.841 10.002 18.8423 9.42882C18.8433 8.8341 19.3005 8.37357 19.8905 8.37305Z" fill="#2E2E2E"/>
<path d="M7.0867 8.36328C7.67364 8.36276 8.14532 8.83159 8.14765 9.41672C8.14998 9.99693 7.6739 10.4733 7.08981 10.4746C6.49173 10.4759 6.03041 10.0138 6.03093 9.41258C6.03093 8.82227 6.49121 8.36406 7.0867 8.36328Z" fill="#2E2E2E"/>
</svg>
