<svg width="24" height="24" viewBox="0 0 24 24" fill="none" xmlns="http://www.w3.org/2000/svg">

<path fill-rule="evenodd" clip-rule="evenodd" d="M11.571 9.15134H8.9533C8.7258 9.15134 8.52699 9.30491 8.46952 9.52502L7.01417 15.0987C6.93145 15.4156 7.17051 15.7251 7.49795 15.7251H8.55159C8.80512 15.7251 9.01853 15.9148 9.04816 16.1666L9.68262 21.5584C9.71225 21.8102 9.92566 22 10.1792 22H11.571H12.4291H13.8209C14.0744 22 14.2878 21.8102 14.3174 21.5584L14.9519 16.1666C14.9815 15.9148 15.1949 15.7251 15.4485 15.7251H16.5021C16.8295 15.7251 17.0686 15.4156 16.9859 15.0987L15.5305 9.52502C15.4731 9.30491 15.2743 9.15134 15.0468 9.15134H12.4291H11.571Z"/>
<path d="M15.5305 9.52502L16.0143 9.3987L15.5305 9.52502ZM16.9859 15.0987L17.4697 14.9724L16.9859 15.0987ZM14.9519 16.1666L14.4553 16.1082L14.9519 16.1666ZM9.04816 16.1666L8.55158 16.2251L9.04816 16.1666ZM8.9533 9.65134H11.571V8.65134H8.9533V9.65134ZM7.49795 15.2251L8.9533 9.65134L7.98573 9.3987L6.53039 14.9724L7.49795 15.2251ZM8.55159 15.2251H7.49795V16.2251H8.55159V15.2251ZM10.1792 21.5L9.54473 16.1082L8.55158 16.2251L9.18605 21.6169L10.1792 21.5ZM11.571 21.5H10.1792V22.5H11.571V21.5ZM11.571 22.5H12.4291V21.5H11.571V22.5ZM12.4291 22.5H13.8209V21.5H12.4291V22.5ZM14.814 21.6169L15.4485 16.2251L14.4553 16.1082L13.8209 21.5L14.814 21.6169ZM15.4485 16.2251H16.5021V15.2251H15.4485V16.2251ZM17.4697 14.9724L16.0143 9.3987L15.0468 9.65134L16.5021 15.2251L17.4697 14.9724ZM15.0468 8.65134H12.4291V9.65134H15.0468V8.65134ZM12.4291 8.65134H11.571V9.65134H12.4291V8.65134ZM16.0143 9.3987C15.8994 8.95847 15.5017 8.65134 15.0468 8.65134V9.65134V9.65134L16.0143 9.3987ZM16.5021 16.2251C17.157 16.2251 17.6351 15.6061 17.4697 14.9724L16.5021 15.2251V16.2251ZM15.4485 16.2251V16.2251V15.2251C14.9414 15.2251 14.5146 15.6046 14.4553 16.1082L15.4485 16.2251ZM9.18605 21.6169C9.24531 22.1205 9.67212 22.5 10.1792 22.5V21.5H10.1792L9.18605 21.6169ZM8.55159 16.2251L8.55158 16.2251L9.54473 16.1082C9.48547 15.6046 9.05866 15.2251 8.55159 15.2251V16.2251ZM13.8209 22.5C14.3279 22.5 14.7548 22.1205 14.814 21.6169L13.8209 21.5H13.8209V22.5ZM6.53039 14.9724C6.36494 15.6061 6.84307 16.2251 7.49795 16.2251V15.2251H7.49795L6.53039 14.9724ZM8.9533 8.65134C8.49831 8.65134 8.10068 8.95847 7.98573 9.3987L8.9533 9.65134V9.65134V8.65134Z"/>
<circle cx="12" cy="4" r="3"/>
</svg>
