<svg width="144" height="136" viewBox="0 0 144 136" fill="none" xmlns="http://www.w3.org/2000/svg">
<g clip-path="url(#clip0)">
<path d="M85.3048 80.8606C86.2215 77.0805 88.3784 73.4922 91.6946 70.8352C95.0108 68.1782 98.9202 66.836 102.776 66.7812C101.859 70.5887 99.7021 74.1496 96.3858 76.8066C93.0696 79.491 89.1602 80.8332 85.3048 80.8606Z" fill="white"/>
<path d="M139.416 36.3766L79.4812 57.5778C75.3023 59.057 68.4271 59.057 64.2212 57.5778L4.58292 36.404C0.376962 34.9248 -1.24071 36.2397 0.970109 39.3349L36.2893 85.2161C35.6153 80.6417 34.3481 75.2729 36.2354 68.2058L46.939 97.8711L47.0738 97.7889C50.9832 95.5428 54.6769 92.9132 57.6696 90.7766L59.7995 89.2975L68.9394 82.2578C78.5915 74.5607 90.6162 65.001 101.374 61.3031C110.46 58.1805 119.357 58.1531 126.259 61.0566L142.975 39.3349C145.24 36.2397 143.595 34.8975 139.416 36.3766Z" fill="#FF4D00"/>
<path d="M82.5013 120.852C81.8003 121.482 81.2881 121.948 81.2881 121.948C76.5699 126.002 71.7438 129.316 66.9178 131.946L67.9962 133.672C70.207 136.767 73.8198 136.767 76.0306 133.672L83.9842 120.852H82.5013Z" fill="#272425"/>
<path d="M83.956 120.853L85.7624 117.922C84.7648 118.826 83.4437 120.003 82.4731 120.853H83.956Z" fill="#272425"/>
<path d="M40.4691 131.289C33.3513 131.398 26.638 128.467 22.432 123.427C20.4369 121.044 18.1991 117.209 18.1991 112.06C18.1991 111.567 18.2261 111.019 18.28 110.498C18.6575 105.869 20.1673 101.212 22.7286 97.898C22.8095 99.0211 22.9443 100.117 23.2678 101.048C24.9394 106.061 27.9591 108.279 30.1969 109.238C34.295 110.991 39.3637 110.361 45.9153 107.293C45.9962 107.54 46.0501 107.759 46.1579 108.006L46.4545 108.69L46.9398 109.211C47.9643 110.334 49.1237 111.375 50.256 112.361C51.0649 113.073 51.7928 113.73 52.4129 114.36C52.386 114.717 52.359 115.127 52.332 115.456C52.2781 116.086 52.1972 116.798 52.1972 117.511C52.1972 118.661 52.359 119.894 52.8982 121.126L53.0061 121.373L54.2733 123.427C55.2169 124.961 56.1336 126.44 56.8885 127.919C51.4962 130.029 45.9692 131.206 40.4691 131.289ZM136.775 78.3129C132.757 62.4531 117.255 59.3579 102.453 64.4527C88.3253 69.2737 70.9623 85.5444 61.6606 92.0362C58.5871 94.1728 53.788 97.7611 48.7192 100.692C39.9838 105.732 30.4126 108.882 27.2851 99.4594C26.2336 96.2819 27.4468 88.5574 31.2484 88.4753C21.1649 88.7218 15.0446 98.8841 14.074 110.087C12.8338 124.495 25.209 136.246 40.55 136C48.6923 135.89 56.0527 133.726 62.6043 130.576C68.9671 127.536 74.5211 123.509 79.2394 119.455C89.3768 110.717 100.08 98.8294 105.661 102.993C105.661 102.993 117.066 110.224 98.975 123.92L99.002 124.221C104.179 125.399 109.706 123.263 114.235 120.715C117.929 118.634 121.569 116.196 124.48 112.854C130.25 106.17 134.618 99.9524 136.883 91.1049C137.61 88.2288 137.503 81.2165 136.775 78.3129Z" fill="#FF4D00"/>
<path d="M59.4235 80.8606C58.5068 77.0805 56.3499 73.4922 53.0337 70.8352C49.7174 68.1782 45.8081 66.836 41.9526 66.7812C42.8693 70.5887 45.0531 74.1496 48.3424 76.8066C51.6317 79.491 55.568 80.8332 59.4235 80.8606Z" fill="white"/>
<path d="M48.8552 68.1511C48.8552 68.1511 51.1739 75.273 51.9558 76.0399C52.7376 74.0677 53.3578 68.8633 53.3578 68.8633L48.8552 68.1511Z" fill="#FF4D00"/>
<path d="M78.4573 6.62888C74.2783 5.09494 70.0724 5.2319 66.0282 5.86191C65.1654 6.02626 63.6826 6.65627 63.0085 6.65627C62.5232 6.16322 62.1188 5.67017 62.2266 5.39625C63.9252 5.39625 64.4375 5.01277 65.435 3.5884C67.0527 3.5884 68.4008 5.64278 70.7464 3.2597L70.9351 3.20491C72.2562 4.54711 74.3322 4.95798 76.1117 3.61579C77.3519 4.2458 76.8936 5.12233 79.5627 5.45104C79.2931 5.97148 78.9157 6.51931 78.4573 6.62888ZM77.1632 8.65587L77.0284 8.68326C76.3274 8.49152 75.6533 8.29978 74.9793 8.13543L74.9524 7.97108C75.4646 7.45063 75.1141 7.12193 75.1141 6.73845C75.4377 6.73845 76.9475 6.95758 77.5946 7.39585C77.3519 7.72455 77.0553 7.91629 77.1632 8.65587ZM71.5822 6.68366L71.4204 6.38235C71.9597 6.27279 73.092 6.218 73.9278 6.5741C73.9009 7.03976 73.8739 7.47802 73.82 7.97108L73.6582 7.99847C72.9303 7.91629 72.1753 7.86151 71.4474 7.80673C71.6092 7.34107 71.6092 6.98497 71.5822 6.68366ZM70.2341 7.86151C69.5062 7.8889 68.7513 7.94368 68.0233 8.02586C67.8615 7.53281 67.7267 7.03976 67.6189 6.5741C68.3469 6.40975 69.2635 6.40975 70.1802 6.35496L70.2881 6.49192C69.7488 7.12193 70.4229 7.45063 70.2341 7.86151ZM70.6655 9.66936C68.8322 9.66936 67.3493 9.39545 65.9203 9.31327L65.8664 9.2311C67.0257 8.65587 74.5479 8.08064 75.7073 9.25849C75.2759 9.66936 71.043 9.66936 70.6655 9.66936ZM64.087 7.47802C64.087 7.03976 66.0012 6.82062 66.5404 6.73845C66.5674 7.20411 66.6213 7.66977 66.6753 8.16282C66.3787 8.46413 64.7071 8.62848 64.4914 8.65587C64.3835 8.08064 64.4644 7.64237 64.087 7.47802ZM79.9671 3.78014C79.6706 5.53321 77.0553 4.27319 77.0553 3.28709C78.9426 2.65708 77.298 1.72576 77.298 1.64358C77.5137 0.109646 74.6827 1.15053 75.7073 2.93099C75.0063 4.35537 71.8788 3.64318 71.5283 2.49273C72.6337 1.94489 72.1753 1.12314 71.4204 0.821831C71.3665 0.575305 71.2856 0.301388 71.2587 0.0274704C70.4498 -0.0547048 70.2611 -0.109488 70.2611 0.794439C69.2096 1.50662 69.2366 1.69837 70.1802 2.68447C69.5331 3.99927 66.4865 3.9171 65.9743 2.87621C66.9988 2.02707 66.2978 1.47923 65.435 1.39706C64.6801 -0.328622 62.6311 3.2597 64.6262 3.2597C64.6262 4.46493 62.5502 4.9032 61.7683 4.49232C61.6335 3.2597 61.0943 2.79404 60.2854 3.5884C59.4766 3.75275 58.479 2.87621 58.1285 3.61579C58.2633 3.9171 61.4717 6.13583 62.4154 7.47802C64.3835 11.2581 65.5159 10.4911 70.2341 10.7102C72.4719 10.6555 75.5725 10.7102 77.9451 9.91589C78.4304 8.90239 78.9157 7.58759 79.5358 6.95758C80.075 5.58799 83.2295 4.19102 83.2295 3.50622C82.6902 3.28709 80.1828 3.39665 79.9671 3.78014Z" fill="#272425"/>
<path d="M65.355 5.23162L65.5977 5.56032C67.2153 5.23162 65.355 3.6429 65.355 5.23162Z" fill="#272425"/>
<path d="M75.7058 5.5605H75.9754C77.674 4.43743 73.8994 4.32787 75.7058 5.5605Z" fill="#272425"/>
<path d="M71.0707 4.05444L70.5585 4.10923C70.3428 4.43793 70.1271 4.5201 70.6663 5.06794C71.3943 5.09533 71.4751 4.38314 71.0707 4.05444Z" fill="#272425"/>
<path d="M30.1683 35.7462L26.9869 25.6113L25.9354 25.9674L27.58 34.541C27.8227 35.6914 27.3374 36.8693 26.205 37.2254L25.531 37.4445L25.0187 35.7462L25.3423 35.6641C25.7736 35.5271 25.8276 35.1162 25.7467 34.7601L23.8324 24.7895L28.308 23.3378L32.0286 35.1436L30.1683 35.7462Z" fill="#272425"/>
<path d="M40.8452 32.8696L39.2275 25.6656L38.5265 33.4175L36.5584 33.8831L33.7813 21.776L35.6686 21.3377L37.3133 28.5143L38.0143 20.7899L39.9824 20.3242L42.7325 32.404L40.8452 32.8696Z" fill="#272425"/>
<path d="M50.9845 31.1442L49.3398 31.3908C48.2075 31.5825 47.129 30.7608 46.9403 29.6103L45.6731 21.2284C45.5113 20.0506 46.2932 18.9549 47.4256 18.7906L49.0702 18.5166C50.2026 18.3523 51.2811 19.1467 51.4698 20.2971L51.7124 21.8584L49.7982 22.1597L49.6095 20.9545C49.5555 20.5984 49.259 20.2697 48.8545 20.3519L48.1805 20.4615C47.7491 20.5436 47.5874 20.9271 47.6413 21.2832L48.8006 28.9529C48.8545 29.309 49.1242 29.6377 49.5555 29.5555L50.2296 29.4459C50.6609 29.3912 50.8227 28.9803 50.7688 28.6242L50.607 27.5833L52.5213 27.282L52.737 28.6516C52.8987 29.8568 52.1169 30.9525 50.9845 31.1442Z" fill="#272425"/>
<path d="M62.8711 27.529L62.6015 24.379C62.4937 23.2011 61.4961 22.3246 60.3368 22.4342L58.5573 22.5985L58.1529 17.6406L56.2387 17.805L57.2632 30.1587L60.9569 29.8573C62.1162 29.7204 62.979 28.7069 62.8711 27.529ZM60.9299 27.3373C60.9569 27.6934 60.7682 28.0769 60.3368 28.1043L59.0426 28.2138L58.7191 24.3242L60.0132 24.2146C60.4446 24.1873 60.7142 24.516 60.7142 24.872L60.9299 27.3373Z" fill="#272425"/>
<path d="M73.0374 29.3917L72.8486 16.9833L69.1549 17.0381C67.9956 17.0655 67.052 18.0242 67.0789 19.202L67.1059 21.6673C67.1059 22.2973 67.3755 22.7629 67.8069 23.0642C67.3755 23.3655 67.1329 23.8312 67.1329 24.516L67.2137 29.4739L69.1549 29.4465L69.101 24.8447C69.101 24.4612 69.3167 24.1051 69.7481 24.1051L71.0153 24.0777L71.0962 29.3917H73.0374ZM70.9883 22.3247L69.7211 22.3521C69.2898 22.3521 69.0741 21.996 69.0471 21.6399L69.0201 19.5307C69.0201 19.1746 69.2358 18.8185 69.6672 18.7911L70.9344 18.7637L70.9883 22.3247Z" fill="#272425"/>
<path d="M85.3063 29.9938L85.7376 24.6798L83.419 24.4881L82.9876 29.8021L81.0464 29.6377L82.0439 17.2841L83.9852 17.421L83.5538 22.735L85.8724 22.9268L86.3038 17.6402L88.2181 17.7771L87.2475 30.1582L85.3063 29.9938Z" fill="#272425"/>
<path d="M97.9772 29.6924L99.2714 21.3105C99.4601 20.1327 98.6782 19.0644 97.5189 18.8727L95.8743 18.5987C94.7419 18.407 93.6635 19.2014 93.4747 20.3792L92.1806 28.7611C91.9919 29.9115 92.7737 31.0072 93.9331 31.1989L95.5777 31.4455C96.7101 31.6646 97.7885 30.8702 97.9772 29.6924ZM96.1169 29.035C96.063 29.3911 95.7664 29.6924 95.362 29.6376L94.688 29.528C94.2566 29.4459 94.0948 29.0624 94.1488 28.7063L95.335 21.0366C95.389 20.6805 95.6586 20.3518 96.09 20.434L96.764 20.5435C97.1954 20.6257 97.3571 21.0092 97.3032 21.3653L96.1169 29.035Z" fill="#272425"/>
<path d="M109.515 26.981L110.216 23.8857C110.485 22.7626 109.784 21.5848 108.652 21.3383L105.039 20.4891L102.262 32.5689L104.149 33.0072L105.255 28.1588L106.98 28.5697C108.113 28.8436 109.245 28.1314 109.515 26.981ZM107.708 26.1866C107.627 26.5427 107.331 26.844 106.9 26.7344L105.632 26.4331L106.495 22.6257L107.762 22.927C108.167 23.0092 108.328 23.4474 108.248 23.7761L107.708 26.1866Z" fill="#272425"/>
<path d="M118.439 37.0886L119.895 24.5432L117.307 23.7214L111.403 34.8425L113.236 35.4451L114.26 33.5277L116.822 34.3494L116.579 36.5134L118.439 37.0886ZM117.037 32.569L115.123 31.939L117.577 27.3098L117.604 27.1728L117.685 27.2002L117.631 27.3371L117.037 32.569Z" fill="#272425"/>
<path d="M53.0605 121.373L52.9527 121.126C52.3865 119.894 52.2517 118.661 52.2517 117.511C52.2517 116.799 52.3056 116.086 52.3865 115.456C52.3865 115.128 52.4404 114.717 52.4674 114.361C51.8473 113.731 51.1193 113.073 50.3105 112.361C49.1781 111.375 48.0188 110.307 46.9943 109.211L46.509 108.691L46.2124 108.006C46.1045 107.759 46.0776 107.54 45.9697 107.294C39.4182 110.361 34.3495 110.991 30.2513 109.238C28.0136 108.28 24.9939 106.088 23.3223 101.048C22.9988 100.117 22.864 99.0213 22.7831 97.8982C20.2218 101.24 18.7389 105.869 18.3345 110.498C18.2806 111.019 18.2536 111.567 18.2536 112.06C18.2536 117.237 20.4914 121.072 22.4596 123.427C26.6655 128.44 33.3788 131.371 40.4966 131.289C45.9967 131.207 51.5238 130.056 56.943 127.92C56.188 126.44 55.2714 124.961 54.3277 123.427L53.0605 121.373Z" fill="white"/>
</g>
<defs>
<clipPath id="clip0">
<rect width="144" height="136" fill="white"/>
</clipPath>
</defs>
</svg>
